P2
# CREATOR: GIMP PNM Filter Version 1.1
5 3 255
23
28
20
25
25
56
10
89
5
21
255
10
90
25
12
